<mxfile host="app.diagrams.net" modified="2023-08-17T04:20:56.776Z" agent="Mozilla/5.0 (Windows NT 10.0; Win64; x64) AppleWebKit/537.36 (KHTML, like Gecko) Chrome/115.0.0.0 Safari/537.36" version="21.6.8" etag="0XtzJHgqZTfy_BfWKtjD" type="github">
  <diagram name="Page-1" id="84QjYPlColQPe6Sy4Smq">
    <mxGraphModel>
      <root>
        <mxCell id="0" />
        <mxCell id="1" parent="0" />
      </root>
    </mxGraphModel>
  </diagram>
</mxfile>
